<svg version="1.1" id="Layer_1" xmlns="http://www.w3.org/2000/svg" xmlns:xlink="http://www.w3.org/1999/xlink" x="0px" y="0px"
	 width="100%" viewBox="0 0 1353 841" enable-background="new 0 0 1353 841" xml:space="preserve">
<path fill="#000000" opacity="1.000000" stroke="none" 
	d="
M1.000000,719.000000 
	C1.000000,479.780945 1.000000,240.561859 1.000000,1.000000 
	C54.359711,1.000000 107.720154,1.000000 161.617767,1.463074 
	C162.154922,87.171722 162.154922,172.417297 162.154922,257.669678 
	C267.562347,257.669678 372.418030,257.669678 477.395782,257.669678 
	C477.395782,256.508484 477.395782,255.677704 477.395813,254.846924 
	C477.396423,171.541290 477.398865,88.235657 477.381134,4.930024 
	C477.380859,3.619989 477.132538,2.310008 477.000000,1.000000 
	C769.261780,1.000000 1061.523560,1.000000 1354.000000,1.000000 
	C1354.000000,279.693481 1354.000000,558.387024 1353.725952,837.832214 
	C1352.319946,837.591125 1351.125977,836.660278 1350.064819,835.596924 
	C1228.930420,714.218262 1107.805542,592.830017 986.684875,471.437653 
	C985.671509,470.422150 984.720642,469.344299 983.002869,467.506073 
	C1104.228882,346.389648 1225.217407,225.510544 1346.674194,104.163612 
	C1344.507202,104.163612 1342.901611,104.163612 1341.296143,104.163612 
	C1276.468872,104.163612 1211.641479,104.194473 1146.814331,104.085030 
	C1143.025391,104.078629 1140.406616,105.170975 1137.719482,107.863167 
	C1024.228149,221.566574 910.657166,335.190735 797.109436,448.838043 
	C795.635742,450.313049 794.333435,451.959229 792.951050,453.525513 
	C792.530884,453.307892 792.110718,453.090240 791.690552,452.872620 
	C791.690552,336.718842 791.690552,220.565063 791.690552,104.562370 
	C740.482910,104.562370 689.924988,104.562370 638.894653,104.562370 
	C638.894653,309.507935 638.894653,514.055054 638.894653,718.482300 
	C584.866333,718.482300 531.313965,718.482300 477.414124,718.482300 
	C477.414124,613.867310 477.414124,509.604919 477.414124,405.166382 
	C372.201752,405.166382 267.339203,405.166382 161.945374,405.166382 
	C161.945374,509.866150 161.945374,614.236206 161.945374,718.835693 
	C139.436111,718.835693 117.457596,718.815552 95.479134,718.840576 
	C63.986069,718.876404 32.493042,718.945190 1.000000,719.000000 
z"/>
<path fill="#FFFFFF" opacity="1.000000" stroke="none" 
	d="
M1.000000,719.468628 
	C32.493042,718.945190 63.986069,718.876404 95.479134,718.840576 
	C117.457596,718.815552 139.436111,718.835693 161.945374,718.835693 
	C161.945374,614.236206 161.945374,509.866150 161.945374,405.166382 
	C267.339203,405.166382 372.201752,405.166382 477.414124,405.166382 
	C477.414124,509.604919 477.414124,613.867310 477.414124,718.482300 
	C531.313965,718.482300 584.866333,718.482300 638.894653,718.482300 
	C638.894653,514.055054 638.894653,309.507935 638.894653,104.562370 
	C689.924988,104.562370 740.482910,104.562370 791.690552,104.562370 
	C791.690552,220.565063 791.690552,336.718842 791.690552,452.872620 
	C792.110718,453.090240 792.530884,453.307892 792.951050,453.525513 
	C794.333435,451.959229 795.635742,450.313049 797.109436,448.838043 
	C910.657166,335.190735 1024.228149,221.566574 1137.719482,107.863167 
	C1140.406616,105.170975 1143.025391,104.078629 1146.814331,104.085030 
	C1211.641479,104.194473 1276.468872,104.163612 1341.296143,104.163612 
	C1342.901611,104.163612 1344.507202,104.163612 1346.674194,104.163612 
	C1225.217407,225.510544 1104.228882,346.389648 983.002869,467.506073 
	C984.720642,469.344299 985.671509,470.422150 986.684875,471.437653 
	C1107.805542,592.830017 1228.930420,714.218262 1350.064819,835.596924 
	C1351.125977,836.660278 1352.319946,837.591125 1353.725952,838.291931 
	C1354.000000,839.330566 1354.000000,840.661133 1354.000000,841.995850 
	C1285.312378,842.000000 1216.624878,842.000000 1147.746094,841.717529 
	C1146.437134,840.208313 1145.364990,838.936279 1144.195435,837.761108 
	C1056.165039,749.309631 968.124756,660.867798 880.103333,572.407288 
	C878.240295,570.534790 876.587463,568.453125 874.710815,566.326477 
	C873.421753,567.452881 872.648254,568.053650 871.960693,568.740540 
	C846.030273,594.645996 820.072510,620.524353 794.274536,646.561096 
	C792.776672,648.072815 791.889893,650.876648 791.885376,653.081421 
	C791.759399,714.728088 791.783020,776.375000 791.793396,838.021912 
	C791.793579,839.347961 791.928101,840.673950 792.000000,842.000000 
	C528.333313,842.000000 264.666656,842.000000 1.000000,842.000000 
	C1.000000,801.231750 1.000000,760.584534 1.000000,719.468628 
z"/>
<path fill="#FFFFFF" opacity="1.000000" stroke="none" 
	d="
M476.531342,1.000000 
	C477.132538,2.310008 477.380859,3.619989 477.381134,4.930024 
	C477.398865,88.235657 477.396423,171.541290 477.395813,254.846924 
	C477.395782,255.677704 477.395782,256.508484 477.395782,257.669678 
	C372.418030,257.669678 267.562347,257.669678 162.154922,257.669678 
	C162.154922,172.417297 162.154922,87.171722 162.077454,1.463074 
	C266.687561,1.000000 371.375122,1.000000 476.531342,1.000000 
z"/>
<path fill="#000000" opacity="1.000000" stroke="none" 
	d="
M792.468628,842.000000 
	C791.928101,840.673950 791.793579,839.347961 791.793396,838.021912 
	C791.783020,776.375000 791.759399,714.728088 791.885376,653.081421 
	C791.889893,650.876648 792.776672,648.072815 794.274536,646.561096 
	C820.072510,620.524353 846.030273,594.645996 871.960693,568.740540 
	C872.648254,568.053650 873.421753,567.452881 874.710815,566.326477 
	C876.587463,568.453125 878.240295,570.534790 880.103333,572.407288 
	C968.124756,660.867798 1056.165039,749.309631 1144.195435,837.761108 
	C1145.364990,838.936279 1146.437134,840.208313 1147.277344,841.717529 
	C1028.979126,842.000000 910.958191,842.000000 792.468628,842.000000 
z"/>
</svg>